[center][img]http://img576.imageshack.us/img576/9885/354181297771200.jpg[/img]



[img]http://leetleech.org/images/48874973695367351744.png[/img]


Format                           : AVI
Format/Info                      : Audio Video Interleave
File size                        : 1.54 GiB
Duration                         : 1h 43mn
Overall bit rate                 : 2 138 Kbps
Writing application              : VirtualDubMod 1.5.10.3 | www.virtualdub-fr.org || (build 2550/release)
Writing library                  : VirtualDub build 32839/release

Video
ID                               : 0
Format                           : MPEG-4 Visual
Format profile                   : Advanced Simple@L5
Format settings, BVOP            : Yes
Format settings, QPel            : No
Format settings, GMC             : No warppoints
Format settings, Matrix          : Custom
Codec ID                         : XVID
Codec ID/Hint                    : XviD
Duration                         : 1h 43mn
Bit rate                         : 1 681 Kbps
Width                            : 720 pixels
Height                           : 384 pixels
Display aspect ratio             : 1.875
Frame rate                       : 23.976 fps
Color space                      : YUV
Chroma subsampling               : 4:2:0
Bit depth                        : 8 bits
Scan type                        : Progressive
Bits/(Pixel*Frame)               : 0.254
Stream size                      : 1.21 GiB (79%)
Writing library                  : XviD 1.2.1 (UTC 2008-12-04)

Audio
ID                               : 1
Format                           : AC-3
Format/Info                      : Audio Coding 3
Mode extension                   : CM (complete main)
Codec ID                         : 2000
Duration                         : 1h 43mn
Bit rate mode                    : Constant
Bit rate                         : 448 Kbps
Channel(s)                       : 6 channels
Channel positions                : Front: L C R, Side: L R, LFE
Sampling rate                    : 48.0 KHz
Bit depth                        : 16 bits
Stream size                      : 330 MiB (21%)
Alignment                        : Split accross interleaves
Interleave, duration             : 42 ms (1.00 video frame)
Interleave, preload duration     : 500 ms




[url]http://www.imdb.com/title/tt1213648/[/url]




[IMG]http://leetleech.org/images/89524873606771859129.png[/IMG]



Users: 6.5/10 (1,262 votes) 19 reviews | Critics: 26 reviews

"London Boulevard" is the story of a man newly released from prison who falls in love with a reclusive young movie star and finds himself in a duel with a vicious gangster.
Director:
William Monahan
Writers:
William Monahan (screenplay), Ken Bruen (novel)
Stars:
Colin Farrell, Keira Knightley and Ray Winstone



[img]http://leetleech.org/images/95521316153253938506.png[/img]



 
http://img863.imageshack.us/img863/938/vlcsnap2011031910h58m07.png
 
http://img138.imageshack.us/img138/5581/vlcsnap2011031910h57m49.png
 
http://img600.imageshack.us/img600/8875/vlcsnap2011031910h57m25.png



Source 

London Boulevard 2010 720p BluRay X264-AMIABLE ....... Thanks 



Greetz to Imagine ,Flawl3ss,DiLLoN,BDK,NOiR,TOXiCiNK,THC,Ez,Rx,





[img]http://img411.imageshack.us/img411/6898/sig1n.jpg[/img]




